<?xml version="1.0" standalone="no"?>
<!DOCTYPE svg PUBLIC "-//W3C//DTD SVG 20010904//EN"
 "http://www.w3.org/TR/2001/REC-SVG-20010904/DTD/svg10.dtd">
<svg version="1.0" xmlns="http://www.w3.org/2000/svg"
 width="1024.000000pt" height="1024.000000pt" viewBox="0 0 1024.000000 1024.000000"
 preserveAspectRatio="xMidYMid meet">

<g transform="translate(0.000000,1024.000000) scale(0.100000,-0.100000)"
fill="#000000" stroke="none">
<path d="M2175 8176 c-67 -30 -190 -186 -267 -341 -92 -184 -127 -338 -135
-595 -6 -221 9 -337 62 -498 138 -412 429 -710 847 -866 160 -60 323 -94 628
-131 453 -57 534 -72 735 -140 155 -53 272 -118 365 -202 l55 -50 35 60 c52
90 132 166 222 213 43 21 78 42 78 45 0 4 -19 10 -43 13 -143 22 -266 153
-303 325 -42 200 -2 375 156 678 33 63 60 125 60 137 0 35 -37 76 -68 76 -85
0 -269 -203 -372 -410 -67 -136 -96 -156 -144 -99 -38 45 -60 130 -60 234 1
140 36 249 140 426 66 113 59 159 -23 159 -114 0 -344 -181 -419 -327 -55
-110 -34 -262 67 -486 82 -183 92 -212 85 -252 -10 -53 -37 -75 -91 -75 -153
0 -338 229 -417 518 -19 66 -22 105 -22 277 -1 178 2 210 23 295 33 132 73
242 131 361 55 113 60 139 30 169 -42 42 -96 22 -183 -67 -69 -71 -125 -151
-177 -253 -34 -68 -55 -127 -131 -370 -24 -74 -24 -75 -61 -78 -46 -4 -73 23
-96 98 -25 80 -24 364 2 475 29 126 65 232 113 335 53 115 57 154 19 187 -32
28 -64 23 -114 -16 -72 -56 -215 -269 -271 -404 -63 -151 -112 -370 -126 -562
-8 -105 -24 -138 -63 -133 -19 2 -33 14 -48 42 -39 69 -49 146 -49 378 0 189
-2 219 -17 234 -23 24 -64 11 -88 -29 -28 -45 -49 -121 -75 -269 -12 -70 -28
-135 -35 -143 -21 -25 -63 -15 -78 18 -12 24 -12 55 -2 180 21 283 60 432 165
646 36 73 65 143 65 155 0 28 -27 62 -55 70 -11 3 -33 -1 -50 -8z"/>
<path d="M7987 8162 c-27 -29 -20 -71 24 -152 116 -213 166 -400 189 -706 12
-152 8 -189 -20 -204 -42 -23 -60 5 -84 131 -49 253 -85 339 -141 339 -46 0
-50 -18 -50 -249 -1 -192 -3 -225 -23 -295 -23 -82 -52 -126 -84 -126 -30 0
-45 41 -52 139 -14 198 -84 469 -161 622 -49 98 -116 200 -179 275 -84 101
-130 123 -176 86 -33 -27 -28 -74 19 -176 92 -198 134 -390 134 -611 1 -221
-29 -317 -99 -317 -38 0 -60 30 -85 116 -53 182 -74 238 -126 336 -131 250
-291 394 -356 322 -27 -29 -20 -62 32 -173 212 -446 211 -899 -3 -1233 -81
-127 -234 -236 -311 -222 -42 8 -75 53 -75 100 0 17 29 91 64 165 68 144 107
257 126 359 27 151 -37 274 -209 401 -88 66 -210 131 -243 131 -16 0 -37 -9
-49 -21 -29 -29 -21 -63 36 -150 138 -213 171 -376 118 -572 -16 -58 -60 -117
-87 -117 -20 0 -51 40 -84 106 -46 92 -148 239 -216 312 -110 118 -171 147
-216 102 -32 -32 -24 -68 47 -205 124 -243 153 -339 153 -511 0 -254 -107
-423 -303 -479 -31 -9 -55 -21 -52 -26 4 -5 11 -9 17 -9 6 0 39 -14 74 -31 74
-37 166 -127 213 -211 l33 -57 75 64 c187 160 468 251 951 310 521 64 744 122
987 256 116 64 191 120 287 215 184 181 297 382 365 649 27 105 28 121 28 340
-1 260 -14 348 -80 524 -61 164 -199 377 -288 445 -41 31 -96 35 -120 8z"/>
<path d="M4620 5159 c0 -26 49 -109 86 -145 51 -49 184 -122 184 -101 0 28
-31 101 -56 134 -14 19 -42 45 -62 58 -45 29 -152 68 -152 54z"/>
<path d="M5584 5154 c-107 -31 -168 -85 -203 -179 -12 -32 -20 -60 -17 -62 7
-8 150 68 179 96 29 26 91 136 85 150 -2 4 -21 2 -44 -5z"/>
<path d="M4392 4999 c-148 -25 -257 -82 -368 -194 -132 -133 -182 -256 -191
-477 l-6 -128 232 0 231 0 0 33 c0 50 27 143 54 186 30 47 63 74 121 98 30 12
43 23 40 32 -3 7 -12 52 -21 100 -14 82 -14 193 2 319 6 48 6 48 -94 31z"/>
<path d="M5966 4983 c-79 -3 -92 -6 -105 -26 -81 -117 -234 -207 -352 -207
l-37 0 -4 -127 c-4 -117 -8 -138 -43 -238 -34 -97 -39 -125 -45 -235 -9 -171
-32 -220 -123 -268 -45 -23 -64 -27 -143 -27 -84 0 -94 2 -140 30 -38 24 -56
45 -81 94 -31 58 -33 70 -33 158 0 114 -18 191 -70 293 -35 70 -147 250 -155
250 -18 0 36 -193 80 -285 41 -88 55 -153 55 -259 0 -172 63 -285 200 -357 39
-21 59 -24 150 -24 96 0 110 3 158 28 75 39 127 90 159 154 24 50 27 71 33
197 4 78 12 151 18 162 9 17 24 22 74 26 35 3 105 20 156 37 51 17 95 31 98
31 2 0 4 -382 4 -850 l0 -850 265 0 265 0 0 1149 0 1149 -147 -1 c-82 0 -188
-2 -237 -4z"/>
<path d="M4560 3836 c-47 -50 -200 -213 -340 -361 -141 -149 -290 -307 -333
-353 l-77 -83 0 -174 0 -175 755 0 755 0 0 220 0 220 -357 1 c-197 0 -365 3
-374 7 -13 5 30 57 197 232 117 124 213 229 214 233 0 4 -8 10 -17 13 -113 38
-237 142 -293 248 -19 36 -37 65 -40 65 -3 0 -43 -42 -90 -93z"/>
</g>
</svg>
